<svg width="159" height="177" viewBox="0 0 159 177" fill="none" xmlns="http://www.w3.org/2000/svg">
<path d="M3.17246 0C2.54502 0 1.93162 0.186052 1.40992 0.534642C0.888222 0.883231 0.48155 1.37868 0.241438 1.95836C0.00132521 2.53805 -0.0614326 3.17593 0.0609757 3.79132C0.183384 4.40671 0.485537 4.97197 0.929208 5.41564C1.37288 5.85931 1.93811 6.16146 2.5535 6.28387C3.16888 6.40628 3.80683 6.34345 4.38652 6.10334C4.9662 5.86323 5.46161 5.45659 5.8102 4.93489C6.15879 4.41319 6.34488 3.79986 6.34488 3.17241C6.34488 2.33104 6.01066 1.5241 5.41572 0.92916C4.82077 0.334217 4.01384 0 3.17246 0Z" fill="#313131"/>
<path d="M3.17246 24.3447C2.54502 24.3447 1.93162 24.5308 1.40992 24.8794C0.888222 25.228 0.48155 25.7234 0.241438 26.3031C0.00132521 26.8828 -0.0614326 27.5207 0.0609757 28.136C0.183384 28.7514 0.485537 29.3167 0.929208 29.7604C1.37288 30.204 1.93811 30.5062 2.5535 30.6286C3.16888 30.751 3.80683 30.6882 4.38652 30.4481C4.9662 30.208 5.46161 29.8013 5.8102 29.2796C6.15879 28.7579 6.34488 28.1446 6.34488 27.5171C6.34488 26.6758 6.01066 25.8688 5.41572 25.2739C4.82077 24.6789 4.01384 24.3447 3.17246 24.3447Z" fill="#313131"/>
<path d="M3.17246 48.6895C2.54502 48.6895 1.93162 48.8755 1.40992 49.2241C0.888222 49.5727 0.48155 50.0681 0.241438 50.6478C0.00132521 51.2275 -0.0614326 51.8653 0.0609757 52.4807C0.183384 53.0961 0.485537 53.6613 0.929207 54.105C1.37288 54.5487 1.93811 54.8508 2.5535 54.9732C3.16888 55.0956 3.80683 55.0328 4.38652 54.7927C4.9662 54.5526 5.46161 54.146 5.8102 53.6243C6.15879 53.1026 6.34488 52.4893 6.34488 51.8618C6.34488 51.0205 6.01066 50.2135 5.41572 49.6186C4.82077 49.0237 4.01384 48.6895 3.17246 48.6895Z" fill="#313131"/>
<path d="M3.17246 73.0342C2.54502 73.0342 1.93162 73.2202 1.40992 73.5688C0.888222 73.9174 0.48155 74.4129 0.241438 74.9925C0.00132521 75.5722 -0.0614326 76.2101 0.0609757 76.8255C0.183384 77.4409 0.485537 78.0061 0.929208 78.4498C1.37288 78.8935 1.93811 79.1956 2.5535 79.318C3.16888 79.4405 3.80683 79.3776 4.38652 79.1375C4.9662 78.8974 5.46161 78.4908 5.8102 77.9691C6.15879 77.4474 6.34488 76.834 6.34488 76.2066C6.34488 75.3652 6.01066 74.5583 5.41572 73.9633C4.82077 73.3684 4.01384 73.0342 3.17246 73.0342Z" fill="#313131"/>
<path d="M3.17246 97.3789C2.54502 97.3789 1.93162 97.565 1.40992 97.9135C0.888222 98.2621 0.48155 98.7576 0.241438 99.3373C0.00132521 99.917 -0.0614326 100.555 0.0609757 101.17C0.183384 101.786 0.485537 102.351 0.929208 102.795C1.37288 103.238 1.93811 103.54 2.5535 103.663C3.16888 103.785 3.80683 103.722 4.38652 103.482C4.9662 103.242 5.46161 102.835 5.8102 102.314C6.15879 101.792 6.34488 101.179 6.34488 100.551C6.34488 99.7099 6.01066 98.903 5.41572 98.3081C4.82077 97.7131 4.01384 97.3789 3.17246 97.3789Z" fill="#313131"/>
<path d="M3.17246 121.724C2.54502 121.724 1.93162 121.91 1.40992 122.258C0.888222 122.607 0.48155 123.102 0.241438 123.682C0.00132521 124.262 -0.0614326 124.9 0.0609757 125.515C0.183384 126.13 0.485537 126.696 0.929207 127.139C1.37288 127.583 1.93811 127.885 2.5535 128.007C3.16888 128.13 3.80683 128.067 4.38652 127.827C4.9662 127.587 5.46161 127.18 5.8102 126.658C6.15879 126.137 6.34488 125.523 6.34488 124.896C6.34488 124.055 6.01066 123.248 5.41572 122.653C4.82077 122.058 4.01384 121.724 3.17246 121.724Z" fill="#313131"/>
<path d="M3.17246 146.068C2.54502 146.068 1.93162 146.254 1.40992 146.603C0.888222 146.952 0.48155 147.447 0.241438 148.027C0.00132521 148.606 -0.0614326 149.244 0.0609757 149.86C0.183384 150.475 0.485537 151.04 0.929208 151.484C1.37288 151.928 1.93811 152.23 2.5535 152.352C3.16888 152.475 3.80683 152.412 4.38652 152.172C4.9662 151.932 5.46161 151.525 5.8102 151.003C6.15879 150.482 6.34488 149.868 6.34488 149.241C6.34488 148.399 6.01066 147.592 5.41572 146.998C4.82077 146.403 4.01384 146.068 3.17246 146.068Z" fill="#313131"/>
<path d="M3.17246 170.413C2.54502 170.413 1.93162 170.599 1.40992 170.948C0.888222 171.296 0.48155 171.792 0.241438 172.371C0.00132521 172.951 -0.0614326 173.589 0.0609757 174.204C0.183384 174.82 0.485537 175.385 0.929208 175.829C1.37288 176.272 1.93811 176.575 2.5535 176.697C3.16888 176.819 3.80683 176.757 4.38652 176.516C4.9662 176.276 5.46161 175.87 5.8102 175.348C6.15879 174.826 6.34488 174.213 6.34488 173.586C6.34488 172.744 6.01066 171.937 5.41572 171.342C4.82077 170.747 4.01384 170.413 3.17246 170.413Z" fill="#313131"/>
<path d="M28.5518 0C27.9243 0 27.3109 0.186052 26.7892 0.534641C26.2675 0.883231 25.8609 1.37868 25.6207 1.95836C25.3806 2.53805 25.3179 3.17593 25.4403 3.79132C25.5627 4.40671 25.8648 4.97197 26.3085 5.41564C26.7522 5.85931 27.3174 6.16146 27.9328 6.28387C28.5482 6.40628 29.1861 6.34345 29.7658 6.10334C30.3455 5.86323 30.8409 5.45659 31.1895 4.93489C31.5381 4.41319 31.7242 3.79986 31.7242 3.17241C31.7242 2.33104 31.39 1.5241 30.795 0.92916C30.2001 0.334217 29.3931 0 28.5518 0Z" fill="#313131"/>
<path d="M28.5518 24.3447C27.9244 24.3447 27.311 24.5308 26.7893 24.8794C26.2676 25.228 25.8609 25.7234 25.6208 26.3031C25.3807 26.8828 25.3179 27.5207 25.4403 28.136C25.5627 28.7514 25.8649 29.3167 26.3085 29.7604C26.7522 30.204 27.3174 30.5062 27.9328 30.6286C28.5482 30.751 29.1862 30.6882 29.7658 30.4481C30.3455 30.208 30.8409 29.8013 31.1895 29.2796C31.5381 28.7579 31.7242 28.1446 31.7242 27.5171C31.7242 26.6758 31.39 25.8688 30.7951 25.2739C30.2001 24.6789 29.3932 24.3447 28.5518 24.3447Z" fill="#313131"/>
<path d="M28.5518 48.6895C27.9244 48.6895 27.311 48.8755 26.7893 49.2241C26.2676 49.5727 25.8609 50.0681 25.6208 50.6478C25.3807 51.2275 25.3179 51.8653 25.4403 52.4807C25.5627 53.0961 25.8649 53.6613 26.3085 54.105C26.7522 54.5487 27.3174 54.8508 27.9328 54.9732C28.5482 55.0956 29.1862 55.0328 29.7658 54.7927C30.3455 54.5526 30.8409 54.146 31.1895 53.6243C31.5381 53.1026 31.7242 52.4893 31.7242 51.8618C31.7242 51.0205 31.39 50.2135 30.7951 49.6186C30.2001 49.0237 29.3932 48.6895 28.5518 48.6895Z" fill="#313131"/>
<path d="M28.5518 73.0342C27.9244 73.0342 27.311 73.2202 26.7893 73.5688C26.2676 73.9174 25.8609 74.4129 25.6208 74.9925C25.3807 75.5722 25.3179 76.2101 25.4403 76.8255C25.5627 77.4409 25.8649 78.0061 26.3085 78.4498C26.7522 78.8935 27.3174 79.1956 27.9328 79.318C28.5482 79.4405 29.1862 79.3776 29.7658 79.1375C30.3455 78.8974 30.8409 78.4908 31.1895 77.9691C31.5381 77.4474 31.7242 76.834 31.7242 76.2066C31.7242 75.3652 31.39 74.5583 30.7951 73.9633C30.2001 73.3684 29.3932 73.0342 28.5518 73.0342Z" fill="#313131"/>
<path d="M28.5518 97.3789C27.9244 97.3789 27.311 97.565 26.7893 97.9135C26.2676 98.2621 25.8609 98.7576 25.6208 99.3373C25.3807 99.917 25.3179 100.555 25.4403 101.17C25.5627 101.786 25.8649 102.351 26.3085 102.795C26.7522 103.238 27.3174 103.54 27.9328 103.663C28.5482 103.785 29.1862 103.722 29.7658 103.482C30.3455 103.242 30.8409 102.835 31.1895 102.314C31.5381 101.792 31.7242 101.179 31.7242 100.551C31.7242 99.7099 31.39 98.903 30.7951 98.3081C30.2001 97.7131 29.3932 97.3789 28.5518 97.3789Z" fill="#313131"/>
<path d="M28.5518 121.724C27.9244 121.724 27.311 121.91 26.7893 122.258C26.2676 122.607 25.8609 123.102 25.6208 123.682C25.3807 124.262 25.3179 124.9 25.4403 125.515C25.5627 126.13 25.8649 126.696 26.3085 127.139C26.7522 127.583 27.3174 127.885 27.9328 128.007C28.5482 128.13 29.1862 128.067 29.7658 127.827C30.3455 127.587 30.8409 127.18 31.1895 126.658C31.5381 126.137 31.7242 125.523 31.7242 124.896C31.7242 124.055 31.39 123.248 30.7951 122.653C30.2001 122.058 29.3932 121.724 28.5518 121.724Z" fill="#313131"/>
<path d="M28.5518 146.068C27.9244 146.068 27.311 146.254 26.7893 146.603C26.2676 146.952 25.8609 147.447 25.6208 148.027C25.3807 148.606 25.3179 149.244 25.4403 149.86C25.5627 150.475 25.8649 151.04 26.3085 151.484C26.7522 151.928 27.3174 152.23 27.9328 152.352C28.5482 152.475 29.1862 152.412 29.7658 152.172C30.3455 151.932 30.8409 151.525 31.1895 151.003C31.5381 150.482 31.7242 149.868 31.7242 149.241C31.7242 148.399 31.39 147.592 30.7951 146.998C30.2001 146.403 29.3932 146.068 28.5518 146.068Z" fill="#313131"/>
<path d="M28.5518 170.413C27.9244 170.413 27.311 170.599 26.7893 170.948C26.2676 171.296 25.8609 171.792 25.6208 172.371C25.3807 172.951 25.3179 173.589 25.4403 174.204C25.5627 174.82 25.8649 175.385 26.3085 175.829C26.7522 176.272 27.3174 176.575 27.9328 176.697C28.5482 176.819 29.1862 176.757 29.7658 176.516C30.3455 176.276 30.8409 175.87 31.1895 175.348C31.5381 174.826 31.7242 174.213 31.7242 173.586C31.7242 172.744 31.39 171.937 30.7951 171.342C30.2001 170.747 29.3932 170.413 28.5518 170.413Z" fill="#313131"/>
<path d="M53.9311 0C53.3036 0 52.6902 0.186052 52.1685 0.534641C51.6468 0.883231 51.2402 1.37868 51.0001 1.95836C50.7599 2.53805 50.6972 3.17593 50.8196 3.79132C50.942 4.40671 51.2442 4.97197 51.6878 5.41564C52.1315 5.85931 52.6967 6.16146 53.3121 6.28387C53.9275 6.40628 54.5655 6.34345 55.1451 6.10334C55.7248 5.86323 56.2202 5.45659 56.5688 4.93489C56.9174 4.41319 57.1035 3.79986 57.1035 3.17241C57.1035 2.33104 56.7693 1.5241 56.1743 0.92916C55.5794 0.334217 54.7725 0 53.9311 0Z" fill="#313131"/>
<path d="M53.9311 24.3447C53.3036 24.3447 52.6902 24.5308 52.1685 24.8794C51.6468 25.228 51.2402 25.7234 51 26.3031C50.7599 26.8828 50.6972 27.5207 50.8196 28.136C50.942 28.7514 51.2441 29.3167 51.6878 29.7604C52.1315 30.204 52.6967 30.5062 53.3121 30.6286C53.9275 30.751 54.5654 30.6882 55.1451 30.4481C55.7248 30.208 56.2202 29.8013 56.5688 29.2796C56.9174 28.7579 57.1035 28.1446 57.1035 27.5171C57.1035 26.6758 56.7693 25.8688 56.1743 25.2739C55.5794 24.6789 54.7724 24.3447 53.9311 24.3447Z" fill="#313131"/>
<path d="M53.9311 48.6895C53.3036 48.6895 52.6902 48.8755 52.1685 49.2241C51.6468 49.5727 51.2402 50.0681 51 50.6478C50.7599 51.2275 50.6972 51.8653 50.8196 52.4807C50.942 53.0961 51.2441 53.6613 51.6878 54.105C52.1315 54.5487 52.6967 54.8508 53.3121 54.9732C53.9275 55.0956 54.5654 55.0328 55.1451 54.7927C55.7248 54.5526 56.2202 54.146 56.5688 53.6243C56.9174 53.1026 57.1035 52.4893 57.1035 51.8618C57.1035 51.0205 56.7693 50.2135 56.1743 49.6186C55.5794 49.0237 54.7724 48.6895 53.9311 48.6895Z" fill="#313131"/>
<path d="M53.9311 73.0342C53.3036 73.0342 52.6902 73.2202 52.1685 73.5688C51.6468 73.9174 51.2402 74.4129 51 74.9925C50.7599 75.5722 50.6972 76.2101 50.8196 76.8255C50.942 77.4409 51.2441 78.0061 51.6878 78.4498C52.1315 78.8935 52.6967 79.1956 53.3121 79.318C53.9275 79.4405 54.5654 79.3776 55.1451 79.1375C55.7248 78.8974 56.2202 78.4908 56.5688 77.9691C56.9174 77.4474 57.1035 76.834 57.1035 76.2066C57.1035 75.3652 56.7693 74.5583 56.1743 73.9633C55.5794 73.3684 54.7724 73.0342 53.9311 73.0342Z" fill="#313131"/>
<path d="M53.9311 97.3789C53.3036 97.3789 52.6902 97.565 52.1685 97.9135C51.6468 98.2621 51.2402 98.7576 51 99.3373C50.7599 99.917 50.6972 100.555 50.8196 101.17C50.942 101.786 51.2441 102.351 51.6878 102.795C52.1315 103.238 52.6967 103.54 53.3121 103.663C53.9275 103.785 54.5654 103.722 55.1451 103.482C55.7248 103.242 56.2202 102.835 56.5688 102.314C56.9174 101.792 57.1035 101.179 57.1035 100.551C57.1035 99.7099 56.7693 98.903 56.1743 98.3081C55.5794 97.7131 54.7724 97.3789 53.9311 97.3789Z" fill="#313131"/>
<path d="M53.9311 121.724C53.3036 121.724 52.6902 121.91 52.1685 122.258C51.6468 122.607 51.2402 123.102 51 123.682C50.7599 124.262 50.6972 124.9 50.8196 125.515C50.942 126.13 51.2441 126.696 51.6878 127.139C52.1315 127.583 52.6967 127.885 53.3121 128.007C53.9275 128.13 54.5654 128.067 55.1451 127.827C55.7248 127.587 56.2202 127.18 56.5688 126.658C56.9174 126.137 57.1035 125.523 57.1035 124.896C57.1035 124.055 56.7693 123.248 56.1743 122.653C55.5794 122.058 54.7724 121.724 53.9311 121.724Z" fill="#313131"/>
<path d="M53.9311 146.068C53.3036 146.068 52.6902 146.254 52.1685 146.603C51.6468 146.952 51.2402 147.447 51 148.027C50.7599 148.606 50.6972 149.244 50.8196 149.86C50.942 150.475 51.2441 151.04 51.6878 151.484C52.1315 151.928 52.6967 152.23 53.3121 152.352C53.9275 152.475 54.5654 152.412 55.1451 152.172C55.7248 151.932 56.2202 151.525 56.5688 151.003C56.9174 150.482 57.1035 149.868 57.1035 149.241C57.1035 148.399 56.7693 147.592 56.1743 146.998C55.5794 146.403 54.7724 146.068 53.9311 146.068Z" fill="#313131"/>
<path d="M53.9311 170.413C53.3036 170.413 52.6902 170.599 52.1685 170.948C51.6468 171.296 51.2402 171.792 51 172.371C50.7599 172.951 50.6972 173.589 50.8196 174.204C50.942 174.82 51.2441 175.385 51.6878 175.829C52.1315 176.272 52.6967 176.575 53.3121 176.697C53.9275 176.819 54.5654 176.757 55.1451 176.516C55.7248 176.276 56.2202 175.87 56.5688 175.348C56.9174 174.826 57.1035 174.213 57.1035 173.586C57.1035 172.744 56.7693 171.937 56.1743 171.342C55.5794 170.747 54.7724 170.413 53.9311 170.413Z" fill="#313131"/>
<path d="M79.3104 0C78.683 0 78.0696 0.186052 77.5479 0.534641C77.0262 0.883231 76.6195 1.37868 76.3794 1.95836C76.1393 2.53805 76.0765 3.17593 76.1989 3.79132C76.3213 4.40671 76.6235 4.97197 77.0671 5.41564C77.5108 5.85931 78.076 6.16146 78.6914 6.28387C79.3068 6.40628 79.9448 6.34345 80.5245 6.10334C81.1041 5.86323 81.5996 5.45659 81.9481 4.93489C82.2967 4.41319 82.4828 3.79986 82.4828 3.17241C82.4828 2.33104 82.1486 1.5241 81.5537 0.92916C80.9587 0.334217 80.1518 0 79.3104 0Z" fill="#313131"/>
<path d="M79.3104 24.3447C78.683 24.3447 78.0696 24.5308 77.5479 24.8794C77.0262 25.228 76.6195 25.7234 76.3794 26.3031C76.1393 26.8828 76.0765 27.5207 76.1989 28.136C76.3213 28.7514 76.6235 29.3167 77.0671 29.7604C77.5108 30.204 78.076 30.5062 78.6914 30.6286C79.3068 30.751 79.9448 30.6882 80.5245 30.4481C81.1041 30.208 81.5996 29.8013 81.9481 29.2796C82.2967 28.7579 82.4828 28.1446 82.4828 27.5171C82.4828 26.6758 82.1486 25.8688 81.5537 25.2739C80.9587 24.6789 80.1518 24.3447 79.3104 24.3447Z" fill="#313131"/>
<path d="M79.3104 48.6895C78.683 48.6895 78.0696 48.8755 77.5479 49.2241C77.0262 49.5727 76.6195 50.0681 76.3794 50.6478C76.1393 51.2275 76.0765 51.8653 76.1989 52.4807C76.3213 53.0961 76.6235 53.6613 77.0671 54.105C77.5108 54.5487 78.076 54.8508 78.6914 54.9732C79.3068 55.0956 79.9448 55.0328 80.5245 54.7927C81.1041 54.5526 81.5996 54.146 81.9481 53.6243C82.2967 53.1026 82.4828 52.4893 82.4828 51.8618C82.4828 51.0205 82.1486 50.2135 81.5537 49.6186C80.9587 49.0237 80.1518 48.6895 79.3104 48.6895Z" fill="#313131"/>
<path d="M79.3104 73.0342C78.683 73.0342 78.0696 73.2202 77.5479 73.5688C77.0262 73.9174 76.6195 74.4129 76.3794 74.9925C76.1393 75.5722 76.0765 76.2101 76.1989 76.8255C76.3213 77.4409 76.6235 78.0061 77.0671 78.4498C77.5108 78.8935 78.076 79.1956 78.6914 79.318C79.3068 79.4405 79.9448 79.3776 80.5245 79.1375C81.1041 78.8974 81.5996 78.4908 81.9481 77.9691C82.2967 77.4474 82.4828 76.834 82.4828 76.2066C82.4828 75.3652 82.1486 74.5583 81.5537 73.9633C80.9587 73.3684 80.1518 73.0342 79.3104 73.0342Z" fill="#313131"/>
<path d="M79.3104 97.3789C78.683 97.3789 78.0696 97.565 77.5479 97.9135C77.0262 98.2621 76.6195 98.7576 76.3794 99.3373C76.1393 99.917 76.0765 100.555 76.1989 101.17C76.3213 101.786 76.6235 102.351 77.0671 102.795C77.5108 103.238 78.076 103.54 78.6914 103.663C79.3068 103.785 79.9448 103.722 80.5245 103.482C81.1041 103.242 81.5996 102.835 81.9481 102.314C82.2967 101.792 82.4828 101.179 82.4828 100.551C82.4828 99.7099 82.1486 98.903 81.5537 98.3081C80.9587 97.7131 80.1518 97.3789 79.3104 97.3789Z" fill="#313131"/>
<path d="M79.3104 121.724C78.683 121.724 78.0696 121.91 77.5479 122.258C77.0262 122.607 76.6195 123.102 76.3794 123.682C76.1393 124.262 76.0765 124.9 76.1989 125.515C76.3213 126.13 76.6235 126.696 77.0671 127.139C77.5108 127.583 78.076 127.885 78.6914 128.007C79.3068 128.13 79.9448 128.067 80.5245 127.827C81.1041 127.587 81.5996 127.18 81.9481 126.658C82.2967 126.137 82.4828 125.523 82.4828 124.896C82.4828 124.055 82.1486 123.248 81.5537 122.653C80.9587 122.058 80.1518 121.724 79.3104 121.724Z" fill="#313131"/>
<path d="M79.3104 146.068C78.683 146.068 78.0696 146.254 77.5479 146.603C77.0262 146.952 76.6195 147.447 76.3794 148.027C76.1393 148.606 76.0765 149.244 76.1989 149.86C76.3213 150.475 76.6235 151.04 77.0671 151.484C77.5108 151.928 78.076 152.23 78.6914 152.352C79.3068 152.475 79.9448 152.412 80.5245 152.172C81.1041 151.932 81.5996 151.525 81.9481 151.003C82.2967 150.482 82.4828 149.868 82.4828 149.241C82.4828 148.399 82.1486 147.592 81.5537 146.998C80.9587 146.403 80.1518 146.068 79.3104 146.068Z" fill="#313131"/>
<path d="M79.3104 170.413C78.683 170.413 78.0696 170.599 77.5479 170.948C77.0262 171.296 76.6195 171.792 76.3794 172.371C76.1393 172.951 76.0765 173.589 76.1989 174.204C76.3213 174.82 76.6235 175.385 77.0671 175.829C77.5108 176.272 78.076 176.575 78.6914 176.697C79.3068 176.819 79.9448 176.757 80.5245 176.516C81.1041 176.276 81.5996 175.87 81.9481 175.348C82.2967 174.826 82.4828 174.213 82.4828 173.586C82.4828 172.744 82.1486 171.937 81.5537 171.342C80.9587 170.747 80.1518 170.413 79.3104 170.413Z" fill="#313131"/>
<path d="M104.69 0C104.062 0 103.449 0.186052 102.927 0.534641C102.405 0.883231 101.999 1.37868 101.759 1.95836C101.519 2.53805 101.456 3.17593 101.578 3.79132C101.701 4.40671 102.003 4.97197 102.446 5.41564C102.89 5.85931 103.455 6.16146 104.071 6.28387C104.686 6.40628 105.324 6.34345 105.904 6.10334C106.483 5.86323 106.979 5.45659 107.327 4.93489C107.676 4.41319 107.862 3.79986 107.862 3.17241C107.862 2.33104 107.528 1.5241 106.933 0.92916C106.338 0.334217 105.531 0 104.69 0Z" fill="#313131"/>
<path d="M104.69 24.3447C104.062 24.3447 103.449 24.5308 102.927 24.8794C102.405 25.228 101.999 25.7234 101.759 26.3031C101.519 26.8828 101.456 27.5207 101.578 28.136C101.701 28.7514 102.003 29.3167 102.446 29.7604C102.89 30.204 103.455 30.5062 104.071 30.6286C104.686 30.751 105.324 30.6882 105.904 30.4481C106.483 30.208 106.979 29.8013 107.327 29.2796C107.676 28.7579 107.862 28.1446 107.862 27.5171C107.862 26.6758 107.528 25.8688 106.933 25.2739C106.338 24.6789 105.531 24.3447 104.69 24.3447Z" fill="#313131"/>
<path d="M104.69 48.6895C104.062 48.6895 103.449 48.8755 102.927 49.2241C102.405 49.5727 101.999 50.0681 101.759 50.6478C101.519 51.2275 101.456 51.8653 101.578 52.4807C101.701 53.0961 102.003 53.6613 102.446 54.105C102.89 54.5487 103.455 54.8508 104.071 54.9732C104.686 55.0956 105.324 55.0328 105.904 54.7927C106.483 54.5526 106.979 54.146 107.327 53.6243C107.676 53.1026 107.862 52.4893 107.862 51.8618C107.862 51.0205 107.528 50.2135 106.933 49.6186C106.338 49.0237 105.531 48.6895 104.69 48.6895Z" fill="#313131"/>
<path d="M104.69 73.0342C104.062 73.0342 103.449 73.2202 102.927 73.5688C102.405 73.9174 101.999 74.4129 101.759 74.9925C101.519 75.5722 101.456 76.2101 101.578 76.8255C101.701 77.4409 102.003 78.0061 102.446 78.4498C102.89 78.8935 103.455 79.1956 104.071 79.318C104.686 79.4405 105.324 79.3776 105.904 79.1375C106.483 78.8974 106.979 78.4908 107.327 77.9691C107.676 77.4474 107.862 76.834 107.862 76.2066C107.862 75.3652 107.528 74.5583 106.933 73.9633C106.338 73.3684 105.531 73.0342 104.69 73.0342Z" fill="#313131"/>
<path d="M104.69 97.3789C104.062 97.3789 103.449 97.565 102.927 97.9135C102.405 98.2621 101.999 98.7576 101.759 99.3373C101.519 99.917 101.456 100.555 101.578 101.17C101.701 101.786 102.003 102.351 102.446 102.795C102.89 103.238 103.455 103.54 104.071 103.663C104.686 103.785 105.324 103.722 105.904 103.482C106.483 103.242 106.979 102.835 107.327 102.314C107.676 101.792 107.862 101.179 107.862 100.551C107.862 99.7099 107.528 98.903 106.933 98.3081C106.338 97.7131 105.531 97.3789 104.69 97.3789Z" fill="#313131"/>
<path d="M104.69 121.724C104.062 121.724 103.449 121.91 102.927 122.258C102.405 122.607 101.999 123.102 101.759 123.682C101.519 124.262 101.456 124.9 101.578 125.515C101.701 126.13 102.003 126.696 102.446 127.139C102.89 127.583 103.455 127.885 104.071 128.007C104.686 128.13 105.324 128.067 105.904 127.827C106.483 127.587 106.979 127.18 107.327 126.658C107.676 126.137 107.862 125.523 107.862 124.896C107.862 124.055 107.528 123.248 106.933 122.653C106.338 122.058 105.531 121.724 104.69 121.724Z" fill="#313131"/>
<path d="M104.69 146.068C104.062 146.068 103.449 146.254 102.927 146.603C102.405 146.952 101.999 147.447 101.759 148.027C101.519 148.606 101.456 149.244 101.578 149.86C101.701 150.475 102.003 151.04 102.446 151.484C102.89 151.928 103.455 152.23 104.071 152.352C104.686 152.475 105.324 152.412 105.904 152.172C106.483 151.932 106.979 151.525 107.327 151.003C107.676 150.482 107.862 149.868 107.862 149.241C107.862 148.399 107.528 147.592 106.933 146.998C106.338 146.403 105.531 146.068 104.69 146.068Z" fill="#313131"/>
<path d="M104.69 170.413C104.062 170.413 103.449 170.599 102.927 170.948C102.405 171.296 101.999 171.792 101.759 172.371C101.519 172.951 101.456 173.589 101.578 174.204C101.701 174.82 102.003 175.385 102.446 175.829C102.89 176.272 103.455 176.575 104.071 176.697C104.686 176.819 105.324 176.757 105.904 176.516C106.483 176.276 106.979 175.87 107.327 175.348C107.676 174.826 107.862 174.213 107.862 173.586C107.862 172.744 107.528 171.937 106.933 171.342C106.338 170.747 105.531 170.413 104.69 170.413Z" fill="#313131"/>
<path d="M130.069 0C129.442 0 128.828 0.186052 128.306 0.534641C127.785 0.883231 127.378 1.37868 127.138 1.95836C126.898 2.53805 126.835 3.17593 126.958 3.79132C127.08 4.40671 127.382 4.97197 127.826 5.41564C128.269 5.85931 128.835 6.16146 129.45 6.28387C130.065 6.40628 130.703 6.34345 131.283 6.10334C131.863 5.86323 132.358 5.45659 132.707 4.93489C133.055 4.41319 133.241 3.79986 133.241 3.17241C133.241 2.33104 132.907 1.5241 132.312 0.92916C131.717 0.334217 130.91 0 130.069 0Z" fill="#313131"/>
<path d="M130.069 24.3447C129.442 24.3447 128.828 24.5308 128.306 24.8794C127.785 25.228 127.378 25.7234 127.138 26.3031C126.898 26.8828 126.835 27.5207 126.958 28.136C127.08 28.7514 127.382 29.3167 127.826 29.7604C128.269 30.204 128.835 30.5062 129.45 30.6286C130.065 30.751 130.703 30.6882 131.283 30.4481C131.863 30.208 132.358 29.8013 132.707 29.2796C133.055 28.7579 133.241 28.1446 133.241 27.5171C133.241 26.6758 132.907 25.8688 132.312 25.2739C131.717 24.6789 130.91 24.3447 130.069 24.3447Z" fill="#313131"/>
<path d="M130.069 48.6895C129.442 48.6895 128.828 48.8755 128.306 49.2241C127.785 49.5727 127.378 50.0681 127.138 50.6478C126.898 51.2275 126.835 51.8653 126.958 52.4807C127.08 53.0961 127.382 53.6613 127.826 54.105C128.269 54.5487 128.835 54.8508 129.45 54.9732C130.065 55.0956 130.703 55.0328 131.283 54.7927C131.863 54.5526 132.358 54.146 132.707 53.6243C133.055 53.1026 133.241 52.4893 133.241 51.8618C133.241 51.0205 132.907 50.2135 132.312 49.6186C131.717 49.0237 130.91 48.6895 130.069 48.6895Z" fill="#313131"/>
<path d="M130.069 73.0342C129.442 73.0342 128.828 73.2202 128.306 73.5688C127.785 73.9174 127.378 74.4129 127.138 74.9925C126.898 75.5722 126.835 76.2101 126.958 76.8255C127.08 77.4409 127.382 78.0061 127.826 78.4498C128.269 78.8935 128.835 79.1956 129.45 79.318C130.065 79.4405 130.703 79.3776 131.283 79.1375C131.863 78.8974 132.358 78.4908 132.707 77.9691C133.055 77.4474 133.241 76.834 133.241 76.2066C133.241 75.3652 132.907 74.5583 132.312 73.9633C131.717 73.3684 130.91 73.0342 130.069 73.0342Z" fill="#313131"/>
<path d="M130.069 97.3789C129.442 97.3789 128.828 97.565 128.306 97.9135C127.785 98.2621 127.378 98.7576 127.138 99.3373C126.898 99.917 126.835 100.555 126.958 101.17C127.08 101.786 127.382 102.351 127.826 102.795C128.269 103.238 128.835 103.54 129.45 103.663C130.065 103.785 130.703 103.722 131.283 103.482C131.863 103.242 132.358 102.835 132.707 102.314C133.055 101.792 133.241 101.179 133.241 100.551C133.241 99.7099 132.907 98.903 132.312 98.3081C131.717 97.7131 130.91 97.3789 130.069 97.3789Z" fill="#313131"/>
<path d="M130.069 121.724C129.442 121.724 128.828 121.91 128.306 122.258C127.785 122.607 127.378 123.102 127.138 123.682C126.898 124.262 126.835 124.9 126.958 125.515C127.08 126.13 127.382 126.696 127.826 127.139C128.269 127.583 128.835 127.885 129.45 128.007C130.065 128.13 130.703 128.067 131.283 127.827C131.863 127.587 132.358 127.18 132.707 126.658C133.055 126.137 133.241 125.523 133.241 124.896C133.241 124.055 132.907 123.248 132.312 122.653C131.717 122.058 130.91 121.724 130.069 121.724Z" fill="#313131"/>
<path d="M130.069 146.068C129.442 146.068 128.828 146.254 128.306 146.603C127.785 146.952 127.378 147.447 127.138 148.027C126.898 148.606 126.835 149.244 126.958 149.86C127.08 150.475 127.382 151.04 127.826 151.484C128.269 151.928 128.835 152.23 129.45 152.352C130.065 152.475 130.703 152.412 131.283 152.172C131.863 151.932 132.358 151.525 132.707 151.003C133.055 150.482 133.241 149.868 133.241 149.241C133.241 148.399 132.907 147.592 132.312 146.998C131.717 146.403 130.91 146.068 130.069 146.068Z" fill="#313131"/>
<path d="M130.069 170.413C129.442 170.413 128.828 170.599 128.306 170.948C127.785 171.296 127.378 171.792 127.138 172.371C126.898 172.951 126.835 173.589 126.958 174.204C127.08 174.82 127.382 175.385 127.826 175.829C128.269 176.272 128.835 176.575 129.45 176.697C130.065 176.819 130.703 176.757 131.283 176.516C131.863 176.276 132.358 175.87 132.707 175.348C133.055 174.826 133.241 174.213 133.241 173.586C133.241 172.744 132.907 171.937 132.312 171.342C131.717 170.747 130.91 170.413 130.069 170.413Z" fill="#313131"/>
<path d="M155.448 0C154.821 0 154.207 0.186052 153.686 0.534641C153.164 0.883231 152.757 1.37868 152.517 1.95836C152.277 2.53805 152.214 3.17593 152.337 3.79132C152.459 4.40671 152.761 4.97197 153.205 5.41564C153.649 5.85931 154.214 6.16146 154.829 6.28387C155.445 6.40628 156.083 6.34345 156.662 6.10334C157.242 5.86323 157.737 5.45659 158.086 4.93489C158.435 4.41319 158.621 3.79986 158.621 3.17241C158.621 2.33104 158.287 1.5241 157.692 0.92916C157.097 0.334217 156.29 0 155.448 0Z" fill="#313131"/>
<path d="M155.448 24.3447C154.821 24.3447 154.208 24.5308 153.686 24.8794C153.164 25.228 152.757 25.7234 152.517 26.3031C152.277 26.8828 152.214 27.5207 152.337 28.136C152.459 28.7514 152.761 29.3167 153.205 29.7604C153.649 30.204 154.214 30.5062 154.829 30.6286C155.445 30.751 156.083 30.6882 156.662 30.4481C157.242 30.208 157.737 29.8013 158.086 29.2796C158.435 28.7579 158.621 28.1446 158.621 27.5171C158.621 26.6758 158.287 25.8688 157.692 25.2739C157.097 24.6789 156.29 24.3447 155.448 24.3447Z" fill="#313131"/>
<path d="M155.448 48.6895C154.821 48.6895 154.208 48.8755 153.686 49.2241C153.164 49.5727 152.757 50.0681 152.517 50.6478C152.277 51.2275 152.214 51.8653 152.337 52.4807C152.459 53.0961 152.761 53.6613 153.205 54.105C153.649 54.5487 154.214 54.8508 154.829 54.9732C155.445 55.0956 156.083 55.0328 156.662 54.7927C157.242 54.5526 157.737 54.146 158.086 53.6243C158.435 53.1026 158.621 52.4893 158.621 51.8618C158.621 51.0205 158.287 50.2135 157.692 49.6186C157.097 49.0237 156.29 48.6895 155.448 48.6895Z" fill="#313131"/>
<path d="M155.448 73.0342C154.821 73.0342 154.208 73.2202 153.686 73.5688C153.164 73.9174 152.757 74.4129 152.517 74.9925C152.277 75.5722 152.214 76.2101 152.337 76.8255C152.459 77.4409 152.761 78.0061 153.205 78.4498C153.649 78.8935 154.214 79.1956 154.829 79.318C155.445 79.4405 156.083 79.3776 156.662 79.1375C157.242 78.8974 157.737 78.4908 158.086 77.9691C158.435 77.4474 158.621 76.834 158.621 76.2066C158.621 75.3652 158.287 74.5583 157.692 73.9633C157.097 73.3684 156.29 73.0342 155.448 73.0342Z" fill="#313131"/>
<path d="M155.448 97.3789C154.821 97.3789 154.208 97.565 153.686 97.9135C153.164 98.2621 152.757 98.7576 152.517 99.3373C152.277 99.917 152.214 100.555 152.337 101.17C152.459 101.786 152.761 102.351 153.205 102.795C153.649 103.238 154.214 103.54 154.829 103.663C155.445 103.785 156.083 103.722 156.662 103.482C157.242 103.242 157.737 102.835 158.086 102.314C158.435 101.792 158.621 101.179 158.621 100.551C158.621 99.7099 158.287 98.903 157.692 98.3081C157.097 97.7131 156.29 97.3789 155.448 97.3789Z" fill="#313131"/>
<path d="M155.448 121.724C154.821 121.724 154.208 121.91 153.686 122.258C153.164 122.607 152.757 123.102 152.517 123.682C152.277 124.262 152.214 124.9 152.337 125.515C152.459 126.13 152.761 126.696 153.205 127.139C153.649 127.583 154.214 127.885 154.829 128.007C155.445 128.13 156.083 128.067 156.662 127.827C157.242 127.587 157.737 127.18 158.086 126.658C158.435 126.137 158.621 125.523 158.621 124.896C158.621 124.055 158.287 123.248 157.692 122.653C157.097 122.058 156.29 121.724 155.448 121.724Z" fill="#313131"/>
<path d="M155.448 146.068C154.821 146.068 154.208 146.254 153.686 146.603C153.164 146.952 152.757 147.447 152.517 148.027C152.277 148.606 152.214 149.244 152.337 149.86C152.459 150.475 152.761 151.04 153.205 151.484C153.649 151.928 154.214 152.23 154.829 152.352C155.445 152.475 156.083 152.412 156.662 152.172C157.242 151.932 157.737 151.525 158.086 151.003C158.435 150.482 158.621 149.868 158.621 149.241C158.621 148.399 158.287 147.592 157.692 146.998C157.097 146.403 156.29 146.068 155.448 146.068Z" fill="#313131"/>
<path d="M155.448 170.413C154.821 170.413 154.208 170.599 153.686 170.948C153.164 171.296 152.757 171.792 152.517 172.371C152.277 172.951 152.214 173.589 152.337 174.204C152.459 174.82 152.761 175.385 153.205 175.829C153.649 176.272 154.214 176.575 154.829 176.697C155.445 176.819 156.083 176.757 156.662 176.516C157.242 176.276 157.737 175.87 158.086 175.348C158.435 174.826 158.621 174.213 158.621 173.586C158.621 172.744 158.287 171.937 157.692 171.342C157.097 170.747 156.29 170.413 155.448 170.413Z" fill="#313131"/>
</svg>
